<svg xmlns="http://www.w3.org/2000/svg" viewBox="0 0 200 200" width="200" height="200">
  <!-- Lingkaran luar -->
  <circle cx="100" cy="100" r="95" stroke="black" stroke-width="10" fill="white" />

  <!-- Paw kiri atas -->
  <path d="M60 70
           c10 -15 30 -15 40 0
           c5 10 -5 25 -20 25
           s-25 -10 -20 -25" fill="black"/>
  <circle cx="55" cy="55" r="6" fill="black" />
  <circle cx="70" cy="45" r="6" fill="black" />
  <circle cx="85" cy="45" r="6" fill="black" />
  <circle cx="100" cy="55" r="6" fill="black" />

  <!-- Paw kanan bawah -->
  <path d="M100 130
           c10 -15 30 -15 40 0
           c5 10 -5 25 -20 25
           s-25 -10 -20 -25" fill="black"/>
  <circle cx="95" cy="115" r="6" fill="black" />
  <circle cx="110" cy="105" r="6" fill="black" />
  <circle cx="125" cy="105" r="6" fill="black" />
  <circle cx="140" cy="115" r="6" fill="black" />
</svg>
